<svg xmlns="http://www.w3.org/2000/svg" xmlns:xlink="http://www.w3.org/1999/xlink" width="500" zoomAndPan="magnify" viewBox="0 0 375 374.999991" height="500" preserveAspectRatio="xMidYMid meet" version="1.0"><path fill="#dcebf9" d="M 295.882812 52.421875 L 295.882812 144.15625 L 135.078125 283.984375 L 19.296875 283.984375 C 8.617188 283.984375 0 275.367188 0 264.6875 L 0 52.421875 L 6.433594 45.992188 L 289.449219 45.992188 L 295.882812 52.421875 " fill-opacity="1" fill-rule="nonzero"/><path fill="#455097" d="M 295.882812 20.261719 L 295.882812 52.421875 L 0 52.421875 L 0 20.261719 C 0 9.582031 8.617188 0.964844 19.296875 0.964844 L 276.585938 0.964844 C 287.265625 0.964844 295.882812 9.582031 295.882812 20.261719 " fill-opacity="1" fill-rule="nonzero"/><path fill="#9a6244" d="M 321.3125 294.988281 L 367.417969 341.09375 C 374.953125 348.632812 374.953125 360.84375 367.417969 368.382812 C 363.699219 372.175781 358.75 374.035156 353.796875 374.035156 C 348.824219 374.035156 343.875 372.175781 340.15625 368.382812 L 294.023438 322.25 L 321.3125 294.988281 " fill-opacity="1" fill-rule="nonzero"/><path fill="#455097" d="M 340.910156 232.527344 C 340.910156 292.929688 291.964844 341.875 231.5625 341.875 C 171.15625 341.875 122.210938 292.929688 122.210938 232.527344 C 122.210938 172.121094 171.15625 123.175781 231.5625 123.175781 C 291.964844 123.175781 340.910156 172.121094 340.910156 232.527344 " fill-opacity="1" fill-rule="nonzero"/><path fill="#ffffff" d="M 32.160156 33.125 L 25.730469 33.125 C 22.1875 33.125 19.296875 30.238281 19.296875 26.695312 C 19.296875 23.152344 22.1875 20.261719 25.730469 20.261719 L 32.160156 20.261719 C 35.703125 20.261719 38.59375 23.152344 38.59375 26.695312 C 38.59375 30.238281 35.703125 33.125 32.160156 33.125 " fill-opacity="1" fill-rule="nonzero"/><path fill="#ffffff" d="M 64.324219 33.125 L 57.890625 33.125 C 54.347656 33.125 51.457031 30.238281 51.457031 26.695312 C 51.457031 23.152344 54.347656 20.261719 57.890625 20.261719 L 64.324219 20.261719 C 67.863281 20.261719 70.753906 23.152344 70.753906 26.695312 C 70.753906 30.238281 67.863281 33.125 64.324219 33.125 " fill-opacity="1" fill-rule="nonzero"/><path fill="#ffffff" d="M 96.484375 33.125 L 90.050781 33.125 C 86.507812 33.125 83.621094 30.238281 83.621094 26.695312 C 83.621094 23.152344 86.507812 20.261719 90.050781 20.261719 L 96.484375 20.261719 C 100.027344 20.261719 102.914062 23.152344 102.914062 26.695312 C 102.914062 30.238281 100.027344 33.125 96.484375 33.125 " fill-opacity="1" fill-rule="nonzero"/><path fill="#a6c7d8" d="M 32.160156 84.585938 L 25.730469 84.585938 C 22.1875 84.585938 19.296875 81.695312 19.296875 78.152344 C 19.296875 74.609375 22.1875 71.71875 25.730469 71.71875 L 32.160156 71.71875 C 35.703125 71.71875 38.59375 74.609375 38.59375 78.152344 C 38.59375 81.695312 35.703125 84.585938 32.160156 84.585938 " fill-opacity="1" fill-rule="nonzero"/><path fill="#a6c7d8" d="M 32.160156 110.3125 L 25.730469 110.3125 C 22.1875 110.3125 19.296875 107.421875 19.296875 103.878906 C 19.296875 100.339844 22.1875 97.449219 25.730469 97.449219 L 32.160156 97.449219 C 35.703125 97.449219 38.59375 100.339844 38.59375 103.878906 C 38.59375 107.421875 35.703125 110.3125 32.160156 110.3125 " fill-opacity="1" fill-rule="nonzero"/><path fill="#a6c7d8" d="M 32.160156 136.042969 L 25.730469 136.042969 C 22.1875 136.042969 19.296875 133.152344 19.296875 129.609375 C 19.296875 126.066406 22.1875 123.175781 25.730469 123.175781 L 32.160156 123.175781 C 35.703125 123.175781 38.59375 126.066406 38.59375 129.609375 C 38.59375 133.152344 35.703125 136.042969 32.160156 136.042969 " fill-opacity="1" fill-rule="nonzero"/><path fill="#a6c7d8" d="M 32.160156 161.769531 L 25.730469 161.769531 C 22.1875 161.769531 19.296875 158.882812 19.296875 155.339844 C 19.296875 151.796875 22.1875 148.90625 25.730469 148.90625 L 32.160156 148.90625 C 35.703125 148.90625 38.59375 151.796875 38.59375 155.339844 C 38.59375 158.882812 35.703125 161.769531 32.160156 161.769531 " fill-opacity="1" fill-rule="nonzero"/><path fill="#a6c7d8" d="M 32.160156 187.5 L 25.730469 187.5 C 22.1875 187.5 19.296875 184.609375 19.296875 181.066406 C 19.296875 177.523438 22.1875 174.636719 25.730469 174.636719 L 32.160156 174.636719 C 35.703125 174.636719 38.59375 177.523438 38.59375 181.066406 C 38.59375 184.609375 35.703125 187.5 32.160156 187.5 " fill-opacity="1" fill-rule="nonzero"/><path fill="#a6c7d8" d="M 32.160156 213.230469 L 25.730469 213.230469 C 22.1875 213.230469 19.296875 210.339844 19.296875 206.796875 C 19.296875 203.253906 22.1875 200.363281 25.730469 200.363281 L 32.160156 200.363281 C 35.703125 200.363281 38.59375 203.253906 38.59375 206.796875 C 38.59375 210.339844 35.703125 213.230469 32.160156 213.230469 " fill-opacity="1" fill-rule="nonzero"/><path fill="#a6c7d8" d="M 32.160156 238.957031 L 25.730469 238.957031 C 22.1875 238.957031 19.296875 236.070312 19.296875 232.527344 C 19.296875 228.984375 22.1875 226.09375 25.730469 226.09375 L 32.160156 226.09375 C 35.703125 226.09375 38.59375 228.984375 38.59375 232.527344 C 38.59375 236.070312 35.703125 238.957031 32.160156 238.957031 " fill-opacity="1" fill-rule="nonzero"/><path fill="#a6c7d8" d="M 32.160156 264.6875 L 25.730469 264.6875 C 22.1875 264.6875 19.296875 261.796875 19.296875 258.253906 C 19.296875 254.710938 22.1875 251.824219 25.730469 251.824219 L 32.160156 251.824219 C 35.703125 251.824219 38.59375 254.710938 38.59375 258.253906 C 38.59375 261.796875 35.703125 264.6875 32.160156 264.6875 " fill-opacity="1" fill-rule="nonzero"/><path fill="#283362" d="M 270.15625 33.125 L 231.5625 33.125 C 228.019531 33.125 225.128906 30.238281 225.128906 26.695312 C 225.128906 23.152344 228.019531 20.261719 231.5625 20.261719 L 270.15625 20.261719 C 273.695312 20.261719 276.585938 23.152344 276.585938 26.695312 C 276.585938 30.238281 273.695312 33.125 270.15625 33.125 " fill-opacity="1" fill-rule="nonzero"/><path fill="#a6c7d8" d="M 57.890625 251.824219 C 54.347656 251.824219 51.457031 248.933594 51.457031 245.390625 L 51.457031 78.152344 C 51.457031 74.609375 54.347656 71.71875 57.890625 71.71875 C 61.433594 71.71875 64.324219 74.609375 64.324219 78.152344 L 64.324219 245.390625 C 64.324219 248.933594 61.433594 251.824219 57.890625 251.824219 " fill-opacity="1" fill-rule="nonzero"/><path fill="#68ca99" d="M 147.941406 84.585938 L 83.621094 84.585938 C 80.078125 84.585938 77.1875 81.695312 77.1875 78.152344 C 77.1875 74.609375 80.078125 71.71875 83.621094 71.71875 L 147.941406 71.71875 C 151.484375 71.71875 154.375 74.609375 154.375 78.152344 C 154.375 81.695312 151.484375 84.585938 147.941406 84.585938 " fill-opacity="1" fill-rule="nonzero"/><path fill="#68ca99" d="M 160.804688 110.3125 L 96.484375 110.3125 C 92.941406 110.3125 90.050781 107.421875 90.050781 103.878906 C 90.050781 100.339844 92.941406 97.449219 96.484375 97.449219 L 160.804688 97.449219 C 164.347656 97.449219 167.238281 100.339844 167.238281 103.878906 C 167.238281 107.421875 164.347656 110.3125 160.804688 110.3125 " fill-opacity="1" fill-rule="nonzero"/><path fill="#f6c03b" d="M 205.832031 110.3125 L 186.535156 110.3125 C 182.992188 110.3125 180.101562 107.421875 180.101562 103.878906 C 180.101562 100.339844 182.992188 97.449219 186.535156 97.449219 L 205.832031 97.449219 C 209.375 97.449219 212.265625 100.339844 212.265625 103.878906 C 212.265625 107.421875 209.375 110.3125 205.832031 110.3125 " fill-opacity="1" fill-rule="nonzero"/><path fill="#68ca99" d="M 147.941406 136.042969 L 102.914062 136.042969 C 99.375 136.042969 96.484375 133.152344 96.484375 129.609375 C 96.484375 126.066406 99.375 123.175781 102.914062 123.175781 L 147.941406 123.175781 C 151.484375 123.175781 154.375 126.066406 154.375 129.609375 C 154.375 133.152344 151.484375 136.042969 147.941406 136.042969 " fill-opacity="1" fill-rule="nonzero"/><path fill="#ffffff" d="M 295.882812 200.363281 L 283.019531 200.363281 C 279.476562 200.363281 276.585938 197.476562 276.585938 193.933594 C 276.585938 190.390625 279.476562 187.5 283.019531 187.5 L 295.882812 187.5 C 299.425781 187.5 302.316406 190.390625 302.316406 193.933594 C 302.316406 197.476562 299.425781 200.363281 295.882812 200.363281 " fill-opacity="1" fill-rule="nonzero"/><path fill="#f6c03b" d="M 192.96875 200.363281 L 167.238281 200.363281 C 163.695312 200.363281 160.804688 197.476562 160.804688 193.933594 C 160.804688 190.390625 163.695312 187.5 167.238281 187.5 L 192.96875 187.5 C 196.511719 187.5 199.398438 190.390625 199.398438 193.933594 C 199.398438 197.476562 196.511719 200.363281 192.96875 200.363281 " fill-opacity="1" fill-rule="nonzero"/><path fill="#68ca99" d="M 135.050781 187.5 L 96.484375 187.5 C 92.941406 187.5 90.050781 184.609375 90.050781 181.066406 C 90.050781 177.523438 92.941406 174.636719 96.484375 174.636719 L 135.050781 174.636719 C 138.621094 174.636719 141.484375 177.523438 141.484375 181.066406 C 141.484375 184.609375 138.621094 187.5 135.050781 187.5 " fill-opacity="1" fill-rule="nonzero"/><path fill="#ef4a71" d="M 257.289062 200.363281 L 218.695312 200.363281 C 215.152344 200.363281 212.265625 197.476562 212.265625 193.933594 C 212.265625 190.390625 215.152344 187.5 218.695312 187.5 L 257.289062 187.5 C 260.832031 187.5 263.722656 190.390625 263.722656 193.933594 C 263.722656 197.476562 260.832031 200.363281 257.289062 200.363281 " fill-opacity="1" fill-rule="nonzero"/><path fill="#f6c03b" d="M 231.5625 226.09375 L 154.375 226.09375 C 150.832031 226.09375 147.941406 223.203125 147.941406 219.660156 C 147.941406 216.117188 150.832031 213.230469 154.375 213.230469 L 231.5625 213.230469 C 235.105469 213.230469 237.992188 216.117188 237.992188 219.660156 C 237.992188 223.203125 235.105469 226.09375 231.5625 226.09375 " fill-opacity="1" fill-rule="nonzero"/><path fill="#68ca99" d="M 125.253906 213.230469 L 102.914062 213.230469 C 99.375 213.230469 96.484375 210.339844 96.484375 206.796875 C 96.484375 203.253906 99.375 200.363281 102.914062 200.363281 L 125.253906 200.363281 C 128.820312 200.363281 131.683594 203.253906 131.683594 206.796875 C 131.683594 210.339844 128.820312 213.230469 125.253906 213.230469 " fill-opacity="1" fill-rule="nonzero"/><path fill="#f6c03b" d="M 192.96875 174.636719 L 186.535156 174.636719 C 182.96875 174.609375 180.101562 171.746094 180.101562 168.179688 C 180.101562 164.636719 182.992188 161.769531 186.535156 161.769531 L 192.96875 161.769531 C 196.535156 161.769531 199.398438 164.660156 199.398438 168.203125 C 199.398438 171.746094 196.511719 174.636719 192.96875 174.636719 " fill-opacity="1" fill-rule="nonzero"/><path fill="#68ca99" d="M 154.097656 161.769531 L 83.621094 161.769531 C 80.078125 161.769531 77.1875 158.882812 77.1875 155.339844 C 77.1875 151.796875 80.078125 148.90625 83.621094 148.90625 L 154.097656 148.90625 C 157.664062 148.90625 160.53125 151.796875 160.53125 155.339844 C 160.53125 158.882812 157.664062 161.769531 154.097656 161.769531 " fill-opacity="1" fill-rule="nonzero"/><path fill="#ffffff" d="M 295.882812 277.550781 L 283.019531 277.550781 C 279.476562 277.550781 276.585938 274.660156 276.585938 271.121094 C 276.585938 267.578125 279.476562 264.6875 283.019531 264.6875 L 295.882812 264.6875 C 299.425781 264.6875 302.316406 267.578125 302.316406 271.121094 C 302.316406 274.660156 299.425781 277.550781 295.882812 277.550781 " fill-opacity="1" fill-rule="nonzero"/><path fill="#f6c03b" d="M 192.96875 277.550781 L 160.804688 277.550781 C 157.261719 277.550781 154.375 274.660156 154.375 271.121094 C 154.375 267.578125 157.261719 264.6875 160.804688 264.6875 L 192.96875 264.6875 C 196.511719 264.6875 199.398438 267.578125 199.398438 271.121094 C 199.398438 274.660156 196.511719 277.550781 192.96875 277.550781 " fill-opacity="1" fill-rule="nonzero"/><path fill="#68ca99" d="M 125.253906 264.6875 L 96.484375 264.6875 C 92.941406 264.6875 90.050781 261.796875 90.050781 258.253906 C 90.050781 254.710938 92.941406 251.824219 96.484375 251.824219 L 125.253906 251.824219 C 128.820312 251.824219 131.683594 254.710938 131.683594 258.253906 C 131.683594 261.796875 128.820312 264.6875 125.253906 264.6875 " fill-opacity="1" fill-rule="nonzero"/><path fill="#ef4a71" d="M 257.289062 277.550781 L 218.695312 277.550781 C 215.152344 277.550781 212.265625 274.660156 212.265625 271.121094 C 212.265625 267.578125 215.152344 264.6875 218.695312 264.6875 L 257.289062 264.6875 C 260.832031 264.6875 263.722656 267.578125 263.722656 271.121094 C 263.722656 274.660156 260.832031 277.550781 257.289062 277.550781 " fill-opacity="1" fill-rule="nonzero"/><path fill="#f6c03b" d="M 180.101562 251.824219 L 154.375 251.824219 C 150.832031 251.824219 147.941406 248.933594 147.941406 245.390625 C 147.941406 241.847656 150.832031 238.957031 154.375 238.957031 L 180.101562 238.957031 C 183.644531 238.957031 186.535156 241.847656 186.535156 245.390625 C 186.535156 248.933594 183.644531 251.824219 180.101562 251.824219 " fill-opacity="1" fill-rule="nonzero"/><path fill="#68ca99" d="M 122.210938 238.957031 L 83.621094 238.957031 C 80.078125 238.957031 77.1875 236.070312 77.1875 232.527344 C 77.1875 228.984375 80.078125 226.09375 83.621094 226.09375 L 122.210938 226.09375 C 125.753906 226.09375 128.644531 228.984375 128.644531 232.527344 C 128.644531 236.070312 125.753906 238.957031 122.210938 238.957031 " fill-opacity="1" fill-rule="nonzero"/><path fill="#b6d8ee" d="M 231.5625 129.609375 C 174.800781 129.609375 128.644531 175.765625 128.644531 232.527344 C 128.644531 289.285156 174.800781 335.441406 231.5625 335.441406 C 288.320312 335.441406 334.476562 289.285156 334.476562 232.527344 C 334.476562 175.765625 288.320312 129.609375 231.5625 129.609375 Z M 231.5625 348.304688 C 167.714844 348.304688 115.78125 296.371094 115.78125 232.527344 C 115.78125 168.679688 167.714844 116.746094 231.5625 116.746094 C 295.40625 116.746094 347.339844 168.679688 347.339844 232.527344 C 347.339844 296.371094 295.40625 348.304688 231.5625 348.304688 " fill-opacity="1" fill-rule="nonzero"/></svg>